<svg width="979" height="209" viewBox="0 0 979 209" fill="none" xmlns="http://www.w3.org/2000/svg">
<rect width="208.557" height="208.557" rx="58.6567" fill="#F46524"/>
<path d="M68 154.849V53H93.7136V154.849H68ZM88.3985 116.781V95.0898H138.82V116.781H88.3985ZM88.3985 74.6913V53H141.118V74.6913H88.3985Z" fill="white"/>
<path d="M274.05 158V56.1513H299.764V158H274.05ZM294.448 119.932V98.2411H344.87V119.932H294.448ZM294.448 77.8426V56.1513H347.168V77.8426H294.448Z" fill="white"/>
<path d="M354.288 158V87.7545H379.427V158H354.288ZM366.786 79.5664C363.051 79.5664 359.938 78.3214 357.448 75.8315C354.959 73.2458 353.714 70.0375 353.714 66.2068C353.714 62.4719 354.959 59.3116 357.448 56.7259C359.938 54.1402 363.051 52.8473 366.786 52.8473C370.712 52.8473 373.873 54.1402 376.267 56.7259C378.757 59.3116 380.002 62.4719 380.002 66.2068C380.002 70.0375 378.757 73.2458 376.267 75.8315C373.873 78.3214 370.712 79.5664 366.786 79.5664Z" fill="white"/>
<path d="M435.22 158V118.352C435.22 115.096 434.262 112.558 432.347 110.739C430.431 108.823 427.989 107.866 425.021 107.866C423.01 107.866 421.19 108.297 419.562 109.159C418.03 110.02 416.833 111.218 415.971 112.75C415.109 114.282 414.678 116.15 414.678 118.352L404.909 113.755C404.909 108.105 406.154 103.269 408.644 99.2466C411.134 95.1286 414.534 91.9683 418.844 89.7656C423.249 87.4672 428.229 86.318 433.783 86.318C438.859 86.318 443.36 87.5151 447.287 89.9093C451.309 92.2077 454.469 95.3202 456.768 99.2466C459.066 103.173 460.215 107.626 460.215 112.606V158H435.22ZM389.682 158V87.7545H414.678V158H389.682Z" fill="white"/>
<path d="M498.428 159.436C491.915 159.436 486.121 157.856 481.046 154.696C475.97 151.536 471.996 147.226 469.123 141.767C466.25 136.213 464.813 129.94 464.813 122.949C464.813 115.862 466.25 109.542 469.123 103.987C471.996 98.4326 475.97 94.1231 481.046 91.0585C486.121 87.8982 491.915 86.318 498.428 86.318C502.833 86.318 506.855 87.132 510.494 88.7601C514.133 90.2924 517.102 92.495 519.401 95.368C521.795 98.2411 523.231 101.497 523.71 105.136V140.475C523.231 144.209 521.795 147.513 519.401 150.386C517.102 153.164 514.133 155.366 510.494 156.994C506.855 158.622 502.833 159.436 498.428 159.436ZM503.743 137.171C507.861 137.171 511.165 135.83 513.655 133.148C516.24 130.467 517.533 127.019 517.533 122.805C517.533 120.028 516.959 117.586 515.809 115.479C514.66 113.372 513.032 111.696 510.925 110.451C508.914 109.206 506.568 108.584 503.886 108.584C501.205 108.584 498.811 109.206 496.704 110.451C494.693 111.696 493.065 113.42 491.82 115.623C490.67 117.73 490.096 120.124 490.096 122.805C490.096 125.583 490.67 128.073 491.82 130.275C492.969 132.382 494.597 134.058 496.704 135.303C498.811 136.548 501.157 137.171 503.743 137.171ZM516.528 158V139.182L520.119 121.943L516.528 104.993V87.7545H541.092V158H516.528Z" fill="white"/>
<path d="M596.906 158V118.352C596.906 115.096 595.948 112.558 594.033 110.739C592.118 108.823 589.676 107.866 586.707 107.866C584.696 107.866 582.876 108.297 581.248 109.159C579.716 110.02 578.519 111.218 577.657 112.75C576.795 114.282 576.364 116.15 576.364 118.352L566.596 113.755C566.596 108.105 567.841 103.269 570.331 99.2466C572.82 95.1286 576.22 91.9683 580.53 89.7656C584.935 87.4672 589.915 86.318 595.469 86.318C600.545 86.318 605.046 87.5151 608.973 89.9093C612.995 92.2077 616.155 95.3202 618.454 99.2466C620.752 103.173 621.901 107.626 621.901 112.606V158H596.906ZM551.369 158V87.7545H576.364V158H551.369Z" fill="white"/>
<path d="M665.572 159.58C658.102 159.58 651.351 158 645.318 154.84C639.38 151.679 634.687 147.322 631.24 141.767C627.792 136.213 626.068 129.94 626.068 122.949C626.068 115.862 627.792 109.542 631.24 103.987C634.783 98.4326 639.524 94.0752 645.461 90.9149C651.495 87.6588 658.294 86.0307 665.86 86.0307C671.318 86.0307 676.298 86.9405 680.799 88.7601C685.3 90.5797 689.418 93.309 693.153 96.9482L677.352 112.75C675.915 111.313 674.239 110.26 672.324 109.59C670.504 108.823 668.35 108.44 665.86 108.44C663.178 108.44 660.736 109.063 658.533 110.308C656.427 111.457 654.703 113.085 653.362 115.192C652.117 117.299 651.495 119.837 651.495 122.805C651.495 125.678 652.117 128.216 653.362 130.419C654.703 132.526 656.427 134.202 658.533 135.447C660.736 136.692 663.178 137.314 665.86 137.314C668.541 137.314 670.84 136.883 672.755 136.021C674.67 135.159 676.346 133.914 677.783 132.286L693.728 148.088C689.802 151.919 685.54 154.792 680.943 156.707C676.442 158.622 671.318 159.58 665.572 159.58Z" fill="white"/>
<path d="M732.123 159.58C724.27 159.58 717.327 158.048 711.294 154.983C705.261 151.823 700.52 147.466 697.072 141.911C693.625 136.356 691.901 129.988 691.901 122.805C691.901 115.719 693.577 109.446 696.929 103.987C700.281 98.4326 704.83 94.0752 710.576 90.9149C716.417 87.6588 722.977 86.0307 730.256 86.0307C737.343 86.0307 743.615 87.563 749.074 90.6275C754.629 93.5963 758.938 97.7622 762.003 103.125C765.163 108.392 766.743 114.426 766.743 121.225C766.743 122.662 766.647 124.146 766.456 125.678C766.36 127.115 766.073 128.791 765.594 130.706L703.68 130.994V114.905L755.682 114.474L744.477 121.513C744.381 117.586 743.807 114.378 742.753 111.888C741.7 109.302 740.168 107.339 738.157 105.998C736.146 104.657 733.608 103.987 730.543 103.987C727.383 103.987 724.653 104.753 722.355 106.286C720.057 107.818 718.285 109.973 717.04 112.75C715.795 115.527 715.172 118.879 715.172 122.805C715.172 126.828 715.843 130.275 717.184 133.148C718.524 135.926 720.44 138.032 722.93 139.469C725.42 140.905 728.484 141.624 732.123 141.624C735.571 141.624 738.588 141.049 741.173 139.9C743.855 138.751 746.249 136.979 748.356 134.585L761.428 147.657C757.98 151.584 753.767 154.552 748.787 156.563C743.903 158.575 738.348 159.58 732.123 159.58Z" fill="white"/>
<path d="M845.361 160.867C837.508 160.867 830.277 159.527 823.669 156.845C817.062 154.164 811.268 150.429 806.288 145.64C801.403 140.852 797.573 135.25 794.796 128.833C792.018 122.321 790.63 115.33 790.63 107.86C790.63 100.39 791.97 93.495 794.652 87.1744C797.429 80.7579 801.26 75.1555 806.144 70.3672C811.028 65.5788 816.774 61.8918 823.382 59.306C829.99 56.6245 837.221 55.2838 845.073 55.2838C852.926 55.2838 860.157 56.6245 866.765 59.306C873.373 61.8918 879.119 65.5788 884.003 70.3672C888.887 75.1555 892.67 80.7579 895.351 87.1744C898.129 93.5908 899.517 100.534 899.517 108.004C899.517 115.474 898.129 122.417 895.351 128.833C892.67 135.25 888.887 140.9 884.003 145.784C879.119 150.572 873.373 154.307 866.765 156.989C860.253 159.575 853.118 160.867 845.361 160.867ZM845.073 137.883C850.82 137.883 855.799 136.638 860.013 134.148C864.227 131.658 867.483 128.163 869.781 123.662C872.08 119.161 873.229 113.893 873.229 107.86C873.229 103.455 872.559 99.4326 871.218 95.7934C869.973 92.1543 868.106 89.0418 865.616 86.4561C863.126 83.7746 860.157 81.7156 856.709 80.2791C853.262 78.8426 849.383 78.1243 845.073 78.1243C839.327 78.1243 834.348 79.3693 830.134 81.8593C825.92 84.2535 822.664 87.7011 820.365 92.2022C818.067 96.7032 816.918 101.923 816.918 107.86C816.918 112.457 817.54 116.623 818.785 120.358C820.126 123.997 822.041 127.157 824.531 129.839C827.021 132.424 829.99 134.436 833.438 135.872C836.885 137.213 840.764 137.883 845.073 137.883Z" fill="#F46524"/>
<path d="M937.714 160.58C929.191 160.58 921.769 159.287 915.448 156.702C909.223 154.116 903.525 150.046 898.353 144.491L914.586 128.115C918.129 131.85 921.912 134.723 925.934 136.734C929.957 138.649 934.506 139.607 939.581 139.607C943.891 139.607 947.195 138.889 949.493 137.452C951.888 135.92 953.085 133.861 953.085 131.275C953.085 128.881 952.223 126.918 950.499 125.386C948.775 123.758 946.477 122.369 943.604 121.22C940.826 119.975 937.714 118.826 934.266 117.772C930.914 116.623 927.515 115.282 924.067 113.75C920.715 112.122 917.603 110.159 914.73 107.86C911.952 105.562 909.702 102.689 907.978 99.2411C906.254 95.7934 905.392 91.5318 905.392 86.4561C905.392 79.9439 906.925 74.3894 909.989 69.7926C913.15 65.1957 917.507 61.6523 923.061 59.1624C928.616 56.6724 935.08 55.4275 942.454 55.4275C949.828 55.4275 956.628 56.6724 962.853 59.1624C969.078 61.6523 974.201 65.1 978.224 69.5053L961.847 85.7378C958.783 82.6733 955.67 80.3749 952.51 78.8426C949.35 77.3103 945.902 76.5442 942.167 76.5442C938.624 76.5442 935.846 77.1667 933.835 78.4116C931.824 79.6566 930.819 81.4283 930.819 83.7267C930.819 86.0252 931.681 87.8926 933.404 89.3291C935.128 90.7656 937.379 92.0585 940.156 93.2077C943.029 94.2612 946.141 95.3625 949.493 96.5117C952.941 97.6609 956.341 99.0016 959.693 100.534C963.044 102.066 966.109 104.029 968.886 106.424C971.759 108.818 974.058 111.834 975.781 115.474C977.505 119.113 978.367 123.518 978.367 128.69C978.367 138.841 974.776 146.694 967.593 152.248C960.507 157.803 950.547 160.58 937.714 160.58Z" fill="#F46524"/>
</svg>
