<svg width="983" height="209" viewBox="0 0 983 209" fill="none" xmlns="http://www.w3.org/2000/svg">
<rect width="208.557" height="208.557" rx="58.6567" fill="#F46524"/>
<path d="M274.05 158V56.1513H299.764V158H274.05ZM294.448 119.932V98.2411H344.87V119.932H294.448ZM294.448 77.8427V56.1513H347.168V77.8427H294.448ZM354.288 158V87.7546H379.427V158H354.288ZM366.786 79.5665C363.051 79.5665 359.938 78.3215 357.448 75.8315C354.959 73.2458 353.714 70.0376 353.714 66.2069C353.714 62.472 354.959 59.3117 357.448 56.7259C359.938 54.1402 363.051 52.8473 366.786 52.8473C370.712 52.8473 373.873 54.1402 376.267 56.7259C378.757 59.3117 380.002 62.472 380.002 66.2069C380.002 70.0376 378.757 73.2458 376.267 75.8315C373.873 78.3215 370.712 79.5665 366.786 79.5665ZM435.22 158V118.352C435.22 115.096 434.262 112.558 432.347 110.739C430.432 108.823 427.989 107.866 425.021 107.866C423.01 107.866 421.19 108.297 419.562 109.159C418.03 110.021 416.833 111.218 415.971 112.75C415.109 114.282 414.678 116.15 414.678 118.352L404.909 113.755C404.909 108.105 406.154 103.269 408.644 99.2467C411.134 95.1287 414.534 91.9683 418.844 89.7657C423.249 87.4673 428.229 86.3181 433.783 86.3181C438.859 86.3181 443.36 87.5152 447.287 89.9093C451.309 92.2078 454.469 95.3202 456.768 99.2467C459.066 103.173 460.215 107.626 460.215 112.606V158H435.22ZM389.682 158V87.7546H414.678V158H389.682ZM498.428 159.437C491.915 159.437 486.121 157.856 481.046 154.696C475.97 151.536 471.996 147.226 469.123 141.767C466.25 136.213 464.813 129.94 464.813 122.949C464.813 115.862 466.25 109.542 469.123 103.987C471.996 98.4327 475.97 94.1231 481.046 91.0586C486.121 87.8982 491.915 86.3181 498.428 86.3181C502.833 86.3181 506.855 87.1321 510.494 88.7601C514.133 90.2924 517.102 92.4951 519.401 95.3681C521.795 98.2411 523.231 101.497 523.71 105.136V140.475C523.231 144.209 521.795 147.513 519.401 150.386C517.102 153.164 514.133 155.366 510.494 156.994C506.855 158.622 502.833 159.437 498.428 159.437ZM503.743 137.171C507.861 137.171 511.165 135.83 513.655 133.148C516.24 130.467 517.533 127.019 517.533 122.805C517.533 120.028 516.959 117.586 515.809 115.479C514.66 113.372 513.032 111.696 510.925 110.451C508.914 109.206 506.568 108.584 503.886 108.584C501.205 108.584 498.811 109.206 496.704 110.451C494.693 111.696 493.065 113.42 491.82 115.623C490.67 117.73 490.096 120.124 490.096 122.805C490.096 125.583 490.67 128.073 491.82 130.275C492.969 132.382 494.597 134.058 496.704 135.303C498.811 136.548 501.157 137.171 503.743 137.171ZM516.528 158V139.182L520.119 121.944L516.528 104.993V87.7546H541.092V158H516.528ZM596.906 158V118.352C596.906 115.096 595.948 112.558 594.033 110.739C592.118 108.823 589.676 107.866 586.707 107.866C584.696 107.866 582.876 108.297 581.248 109.159C579.716 110.021 578.519 111.218 577.657 112.75C576.795 114.282 576.364 116.15 576.364 118.352L566.596 113.755C566.596 108.105 567.841 103.269 570.331 99.2467C572.82 95.1287 576.22 91.9683 580.53 89.7657C584.935 87.4673 589.915 86.3181 595.469 86.3181C600.545 86.3181 605.046 87.5152 608.973 89.9093C612.995 92.2078 616.155 95.3202 618.454 99.2467C620.752 103.173 621.901 107.626 621.901 112.606V158H596.906ZM551.369 158V87.7546H576.364V158H551.369ZM665.572 159.58C658.103 159.58 651.351 158 645.318 154.84C639.38 151.679 634.687 147.322 631.24 141.767C627.792 136.213 626.068 129.94 626.068 122.949C626.068 115.862 627.792 109.542 631.24 103.987C634.783 98.4327 639.524 94.0752 645.461 90.9149C651.495 87.6588 658.294 86.0308 665.86 86.0308C671.318 86.0308 676.298 86.9406 680.799 88.7601C685.3 90.5797 689.418 93.3091 693.153 96.9483L677.352 112.75C675.915 111.313 674.239 110.26 672.324 109.59C670.504 108.823 668.35 108.44 665.86 108.44C663.178 108.44 660.736 109.063 658.533 110.308C656.427 111.457 654.703 113.085 653.362 115.192C652.117 117.299 651.495 119.837 651.495 122.805C651.495 125.678 652.117 128.216 653.362 130.419C654.703 132.526 656.427 134.202 658.533 135.447C660.736 136.692 663.178 137.314 665.86 137.314C668.541 137.314 670.84 136.883 672.755 136.021C674.67 135.159 676.346 133.914 677.783 132.286L693.728 148.088C689.802 151.919 685.54 154.792 680.943 156.707C676.442 158.622 671.318 159.58 665.572 159.58ZM732.123 159.58C724.27 159.58 717.327 158.048 711.294 154.983C705.26 151.823 700.52 147.466 697.072 141.911C693.625 136.357 691.901 129.988 691.901 122.805C691.901 115.719 693.577 109.446 696.929 103.987C700.281 98.4327 704.83 94.0752 710.576 90.9149C716.417 87.6588 722.977 86.0308 730.256 86.0308C737.343 86.0308 743.615 87.563 749.074 90.6276C754.629 93.5964 758.938 97.7623 762.003 103.125C765.163 108.392 766.743 114.426 766.743 121.225C766.743 122.662 766.647 124.146 766.456 125.678C766.36 127.115 766.073 128.791 765.594 130.706L703.68 130.994V114.905L755.682 114.474L744.477 121.513C744.381 117.586 743.807 114.378 742.753 111.888C741.7 109.302 740.168 107.339 738.157 105.998C736.145 104.658 733.608 103.987 730.543 103.987C727.383 103.987 724.653 104.753 722.355 106.286C720.057 107.818 718.285 109.973 717.04 112.75C715.795 115.527 715.172 118.879 715.172 122.805C715.172 126.828 715.843 130.275 717.184 133.148C718.524 135.926 720.44 138.032 722.93 139.469C725.42 140.906 728.484 141.624 732.123 141.624C735.571 141.624 738.588 141.049 741.173 139.9C743.855 138.751 746.249 136.979 748.356 134.585L761.428 147.657C757.98 151.584 753.767 154.552 748.787 156.563C743.903 158.575 738.348 159.58 732.123 159.58Z" fill="white"/>
<path d="M845.361 159.867C837.508 159.867 830.277 158.527 823.669 155.845C817.061 153.164 811.268 149.429 806.288 144.64C801.404 139.852 797.573 134.25 794.796 127.833C792.018 121.321 790.63 114.33 790.63 106.86C790.63 99.3903 791.97 92.4951 794.652 86.1744C797.429 79.758 801.26 74.1556 806.144 69.3672C811.028 64.5789 816.774 60.8918 823.382 58.3061C829.99 55.6246 837.221 54.2839 845.073 54.2839C852.926 54.2839 860.157 55.6246 866.765 58.3061C873.373 60.8918 879.119 64.5789 884.003 69.3672C888.887 74.1556 892.67 79.758 895.351 86.1744C898.129 92.5908 899.517 99.534 899.517 107.004C899.517 114.474 898.129 121.417 895.351 127.833C892.67 134.25 888.887 139.9 884.003 144.784C879.119 149.572 873.373 153.307 866.765 155.989C860.253 158.575 853.118 159.867 845.361 159.867ZM845.073 136.883C850.82 136.883 855.799 135.638 860.013 133.148C864.227 130.658 867.483 127.163 869.781 122.662C872.08 118.161 873.229 112.894 873.229 106.86C873.229 102.455 872.559 98.4327 871.218 94.7935C869.973 91.1543 868.106 88.0419 865.616 85.4562C863.126 82.7747 860.157 80.7157 856.709 79.2792C853.262 77.8427 849.383 77.1244 845.073 77.1244C839.327 77.1244 834.348 78.3694 830.134 80.8593C825.92 83.2535 822.664 86.7011 820.365 91.2022C818.067 95.7033 816.918 100.923 816.918 106.86C816.918 111.457 817.54 115.623 818.785 119.358C820.126 122.997 822.041 126.157 824.531 128.839C827.021 131.425 829.99 133.436 833.438 134.872C836.885 136.213 840.764 136.883 845.073 136.883ZM937.714 159.58C929.191 159.58 921.769 158.287 915.448 155.702C909.223 153.116 903.525 149.046 898.353 143.491L914.586 127.115C918.129 130.85 921.912 133.723 925.935 135.734C929.957 137.649 934.506 138.607 939.581 138.607C943.891 138.607 947.195 137.889 949.493 136.452C951.887 134.92 953.085 132.861 953.085 130.275C953.085 127.881 952.223 125.918 950.499 124.386C948.775 122.758 946.477 121.369 943.604 120.22C940.826 118.975 937.714 117.826 934.266 116.772C930.914 115.623 927.515 114.282 924.067 112.75C920.715 111.122 917.603 109.159 914.73 106.86C911.952 104.562 909.702 101.689 907.978 98.2411C906.254 94.7935 905.392 90.5318 905.392 85.4562C905.392 78.944 906.925 73.3895 909.989 68.7926C913.15 64.1958 917.507 60.6524 923.061 58.1624C928.616 55.6725 935.08 54.4275 942.454 54.4275C949.828 54.4275 956.628 55.6725 962.853 58.1624C969.078 60.6524 974.201 64.1 978.224 68.5053L961.847 84.7379C958.783 81.6733 955.67 79.3749 952.51 77.8427C949.35 76.3104 945.902 75.5442 942.167 75.5442C938.624 75.5442 935.846 76.1667 933.835 77.4117C931.824 78.6567 930.819 80.4284 930.819 82.7268C930.819 85.0252 931.681 86.8927 933.404 88.3292C935.128 89.7657 937.379 91.0586 940.156 92.2078C943.029 93.2612 946.141 94.3625 949.493 95.5117C952.941 96.661 956.341 98.0017 959.693 99.534C963.044 101.066 966.109 103.029 968.886 105.424C971.759 107.818 974.058 110.835 975.781 114.474C977.505 118.113 978.367 122.518 978.367 127.69C978.367 137.841 974.776 145.694 967.593 151.248C960.507 156.803 950.547 159.58 937.714 159.58Z" fill="#F46524"/>
<path d="M68 154.849V53H93.7136V154.849H68ZM88.3985 116.781V95.0898H138.82V116.781H88.3985ZM88.3985 74.6913V53H141.118V74.6913H88.3985Z" fill="white"/>
</svg>
